<svg width="287" height="276" viewBox="0 0 287 276" fill="none" xmlns="http://www.w3.org/2000/svg">
<path d="M115.333 63.8674L109.998 102.969L171.656 111.382L176.991 72.2806L115.333 63.8674Z" fill="#EBEBEB"/>
<path d="M112.997 63.8477C115.163 66.5806 117.39 69.1974 119.577 71.8825C121.763 74.5676 124.018 77.1639 126.259 79.7739C128.589 82.5068 130.939 85.2398 133.282 87.9112C133.357 87.9932 133.419 88.082 133.494 88.1708C135.576 90.5485 137.664 92.9239 139.759 95.297L140.067 95.6386L140.449 95.3926C143.1 93.6663 145.747 91.9309 148.389 90.1864C148.483 90.132 148.574 90.0727 148.662 90.0088C151.664 88.041 154.652 86.0528 157.626 84.0441C160.468 82.131 163.324 80.1838 166.16 78.2366C168.995 76.2894 171.837 74.3012 174.652 72.2583C171.728 73.939 168.831 75.7223 165.927 77.4577C163.024 79.1931 160.127 81.0037 157.237 82.8211C154.021 84.8207 150.805 86.8545 147.589 88.9224C145.18 90.4529 142.77 91.9924 140.361 93.5411C138.468 91.4094 136.562 89.264 134.649 87.1528C132.107 84.3197 129.554 81.5002 126.99 78.6944C124.685 76.1801 122.373 73.6749 120.055 71.1788C117.67 68.7465 115.361 66.2526 112.997 63.8477Z" fill="white"/>
<path d="M133.002 89.8047C133.026 89.8282 133.049 89.8533 133.07 89.8798L133.931 90.8364C135.298 92.3532 136.712 93.8153 138.154 95.2501C139.916 97.0128 141.727 98.7277 143.551 100.429C145.375 102.13 147.234 103.77 149.14 105.382C151.046 106.995 152.966 108.594 154.975 110.083C153.328 108.191 151.559 106.4 149.83 104.617C148.101 102.834 146.25 101.14 144.439 99.4451C142.629 97.7507 140.743 96.0905 138.844 94.4712C137.334 93.1799 135.79 91.9091 134.198 90.6929C133.833 90.4059 133.464 90.1258 133.091 89.8525L133.002 89.8047Z" fill="white"/>
<path d="M130.003 101.722C132.346 100.82 134.635 99.8024 136.89 98.7571C139.145 97.7117 141.379 96.5912 143.606 95.4707C145.833 94.3502 148.027 93.1614 150.193 91.9316C151.962 90.934 153.711 89.8819 155.426 88.816C155.802 88.5837 156.164 88.3514 156.526 88.1328L156.608 88.0781C156.575 88.0868 156.539 88.0868 156.506 88.0781L155.207 88.6042C153.356 89.3489 151.539 90.1688 149.742 91.0024C147.48 92.0546 145.253 93.1614 143.032 94.2956C140.812 95.4297 138.619 96.6049 136.446 97.8416C134.273 99.0782 132.1 100.335 130.003 101.722Z" fill="white"/>
<path d="M164.992 7.28359L113.999 20.2246L122.206 52.5619L173.198 39.6209L164.992 7.28359Z" fill="#EBEBEB"/>
<path d="M117.999 20.21C120.561 21.6585 123.137 23.0113 125.706 24.4188C128.275 25.8262 130.858 27.1517 133.44 28.5182C136.132 29.9256 138.831 31.2989 141.53 32.6722L141.776 32.8089L148.943 36.4095L149.291 36.5804L149.517 36.2661C151.047 34.0729 152.564 31.8729 154.088 29.6728C154.144 29.5982 154.196 29.5206 154.245 29.4405C155.976 26.9536 157.688 24.4484 159.383 21.9249C161.009 19.5268 162.628 17.0945 164.234 14.669C165.839 12.2435 167.438 9.78385 169.016 7.29688C167.253 9.53789 165.552 11.8541 163.824 14.1292C162.095 16.4044 160.407 18.7479 158.713 21.0846C156.827 23.6763 154.948 26.2908 153.076 28.9281C151.678 30.8913 150.277 32.8613 148.874 34.8381C146.688 33.7449 144.515 32.6859 142.35 31.6337C139.453 30.2126 136.556 28.8097 133.659 27.425C131.062 26.1883 128.459 24.9585 125.856 23.756C123.253 22.5535 120.623 21.3442 117.999 20.21Z" fill="white"/>
<path d="M131.996 29.6465C132.02 29.6627 132.045 29.6765 132.071 29.6875L133.048 30.1657C134.602 30.9173 136.171 31.6233 137.756 32.2838C139.696 33.1173 141.657 33.8825 143.625 34.6341C145.592 35.3857 147.574 36.0894 149.576 36.7521C151.578 37.4149 153.593 38.0571 155.643 38.59C153.75 37.6267 151.824 36.7726 149.89 35.9459C147.956 35.1192 145.975 34.354 144.014 33.6024C142.053 32.8509 140.058 32.1403 138.056 31.4776C136.464 30.9446 134.852 30.4322 133.219 29.9813C132.843 29.872 132.468 29.7763 132.085 29.6738L131.996 29.6465Z" fill="white"/>
<path d="M135.001 51.5154C136.552 50.0737 138.021 48.5501 139.456 47.006C140.89 45.4619 142.298 43.8905 143.685 42.3122C145.072 40.7339 146.418 39.0941 147.723 37.4475C148.796 36.0811 149.848 34.7146 150.845 33.3481L151.481 32.4531C151.481 32.4531 151.481 32.4053 151.528 32.3848L151.46 32.4463C151.173 32.7195 150.886 32.986 150.606 33.2661C149.39 34.4345 148.222 35.6506 147.067 36.8873C145.625 38.4246 144.231 40.0028 142.851 41.588C141.471 43.1731 140.118 44.7992 138.813 46.4526C137.508 48.106 136.203 49.739 135.001 51.5154Z" fill="white"/>
<path d="M167.248 147.516L114.997 153.645L118.884 186.78L171.135 180.651L167.248 147.516Z" fill="#EBEBEB"/>
<path d="M117.004 153.662C119.354 155.431 121.732 157.112 124.089 158.854C126.446 160.597 128.838 162.236 131.222 163.904C133.607 165.571 136.203 167.368 138.697 169.082L138.922 169.246C141.122 170.754 143.331 172.26 145.549 173.763L145.877 173.974L146.137 173.694C147.959 171.722 149.758 169.743 151.535 167.757C151.604 167.694 151.668 167.625 151.726 167.552C153.762 165.311 155.789 163.052 157.807 160.774C159.733 158.615 161.653 156.415 163.566 154.222C165.479 152.029 167.386 149.802 169.258 147.533C167.208 149.528 165.227 151.633 163.211 153.634C161.196 155.636 159.214 157.734 157.226 159.859C155.017 162.173 152.815 164.516 150.619 166.889C148.973 168.652 147.333 170.428 145.686 172.198C143.677 170.832 141.669 169.499 139.66 168.174C136.982 166.384 134.294 164.612 131.598 162.858C129.193 161.287 126.776 159.734 124.349 158.199C121.869 156.689 119.45 155.131 117.004 153.662Z" fill="white"/>
<path d="M132.001 167.676L132.069 167.724C132.37 167.929 132.677 168.134 132.978 168.325C134.42 169.281 135.882 170.183 137.371 171.058C139.182 172.13 141.027 173.148 142.878 174.16C144.73 175.171 146.602 176.114 148.501 177.036C150.401 177.958 152.307 178.86 154.268 179.653C152.525 178.45 150.722 177.35 148.911 176.285C147.1 175.219 145.242 174.187 143.397 173.183C141.553 172.178 139.667 171.215 137.774 170.293C136.264 169.555 134.727 168.837 133.169 168.175C132.814 168.02 132.452 167.869 132.083 167.724L132.001 167.676Z" fill="white"/>
<path d="M134 185.728C135.729 184.498 137.416 183.179 139.008 181.847C140.6 180.514 142.233 179.114 143.791 177.747C145.349 176.381 146.92 174.926 148.437 173.457C149.673 172.268 150.89 171.058 152.065 169.801L152.816 168.995C152.836 168.976 152.854 168.956 152.871 168.934C152.849 168.954 152.824 168.97 152.796 168.981L151.846 169.665C150.48 170.669 149.168 171.714 147.856 172.787C146.223 174.154 144.638 175.52 143.073 176.886C141.509 178.253 139.944 179.708 138.427 181.177C136.911 182.646 135.421 184.149 134 185.728Z" fill="white"/>
<path d="M152.431 8.67452C147.177 8.77701 139.524 8.98198 134.339 8.98198H134.038V8.67452L133.997 1.02912V0.6875H134.339C139.757 0.6875 147.279 0.742159 152.622 0.844644C152.622 3.16765 152.472 6.31053 152.431 8.67452ZM152.431 8.67452C152.362 6.44034 152.294 3.20864 152.246 1.02912L152.431 1.22042C147.204 1.30924 139.647 1.35707 134.339 1.37074L134.68 1.02912L134.646 8.67452L134.339 8.3739C139.456 8.3739 147.245 8.57204 152.431 8.67452Z" fill="#EBEBEB"/>
<path d="M134.191 186.473C139.445 186.371 147.098 186.166 152.283 186.166H152.584V186.473L152.625 194.119V194.461H152.283C146.865 194.461 139.343 194.406 134 194.303C134 191.98 134.15 188.837 134.191 186.473ZM134.191 186.473C134.26 188.708 134.328 191.939 134.376 194.119L134.191 193.928C139.418 193.839 146.975 193.791 152.283 193.777L151.942 194.119L151.976 186.473L152.283 186.774C147.166 186.774 139.377 186.576 134.191 186.473Z" fill="#EBEBEB"/>
<path d="M134.216 186.473C139.47 186.371 147.122 186.166 152.308 186.166H152.615V186.473V194.119V194.461H152.274C146.862 194.461 139.333 194.406 133.997 194.303C133.997 191.98 134.141 188.837 134.182 186.473H134.216ZM134.216 186.473C134.284 188.708 134.359 191.939 134.407 194.119L134.216 193.928C139.449 193.839 146.999 193.791 152.308 193.777L151.966 194.119L152.007 186.473L152.308 186.774C147.197 186.774 139.401 186.576 134.216 186.473Z" fill="#EBEBEB"/>
<path d="M134.226 176.817C139.481 176.715 147.133 176.51 152.319 176.51H152.626V176.817V184.463V184.804H152.278C146.866 184.804 139.337 184.75 134.001 184.647C134.001 182.324 134.144 179.181 134.185 176.817H134.226ZM134.226 176.817C134.295 179.051 134.37 182.283 134.418 184.463L134.226 184.271C139.46 184.182 147.01 184.135 152.319 184.121L151.984 184.463V176.817L152.284 177.118C147.174 177.118 139.378 176.92 134.192 176.817H134.226Z" fill="#EBEBEB"/>
<path d="M0 274.574C91.9362 274.158 195.064 274.158 287 274.574C195.064 274.998 91.9362 274.991 0 274.574Z" fill="#263238"/>
<path d="M108.321 117.071C111.324 120.744 114.737 124.062 118.496 126.958C114.485 114.799 120.802 90.7185 120.819 94.3559C120.895 111.738 127.322 132.181 131.087 133.944C131.087 133.944 131.087 133.944 131.155 133.944C141.491 137.675 151.784 136.929 160.831 134.199C160.831 134.199 160.831 134.199 160.831 134.139C155.294 120.166 161.068 95.543 161.289 97.1709C163.773 114.604 174.168 126.763 176.331 127.212C186.014 121.319 191.932 114.621 190.957 113.595C183.902 106.133 180.036 90.0401 177.051 73.2687C174.084 56.7347 174.075 41.6252 168.199 26.1511C162.807 11.9912 147.129 6.0814 136.573 10.3887C108.838 21.7166 104.073 111.924 108.321 117.071Z" fill="#263238"/>
<path d="M138.427 9.76758C136.123 10.3689 133.977 11.4624 132.136 12.9726C130.261 14.4398 128.524 16.0745 126.946 17.8565C123.879 21.4914 121.208 25.4422 118.976 29.6423C114.372 37.9771 111.345 47.092 109.132 56.3001C107.057 65.5548 105.775 74.9694 105.3 84.4418C105.147 86.8075 105.13 89.1731 105.045 91.5387L105.003 98.6356L105.24 105.716L105.681 112.787V105.707L105.808 98.6356L106.071 91.5726C106.232 89.224 106.317 86.8668 106.538 84.5266C107.202 75.1433 108.591 65.8254 110.692 56.6563C112.689 47.4792 115.822 38.5869 120.019 30.1849C122.112 25.984 124.626 22.0067 127.523 18.3144C128.99 16.4738 130.622 14.771 132.398 13.227C133.297 12.4751 134.249 11.7894 135.247 11.1751C136.231 10.5505 137.303 10.0761 138.427 9.76758Z" fill="#263238"/>
<path d="M192.486 111.335C190.653 107.682 189.006 103.938 187.552 100.118C186.042 96.3192 184.677 92.4867 183.499 88.5694C182.32 84.6521 181.26 80.7348 180.446 76.7582C179.632 72.7816 178.954 68.7201 178.208 64.7011C176.622 56.6631 175.045 48.5911 172.993 40.6632C171.942 36.6951 170.823 32.7439 169.441 28.869C168.744 26.9323 167.94 25.0357 167.033 23.1881C166.199 21.3003 164.984 19.6057 163.463 18.2109C164.845 19.7101 165.927 21.46 166.651 23.3662C167.44 25.2444 168.127 27.1633 168.711 29.1149C169.932 33.0067 170.916 36.9749 171.815 40.9854C173.612 48.9557 175.206 56.9768 176.656 65.0233C177.453 69.0423 178.174 73.0529 179.047 77.0889C179.916 81.1062 181.018 85.0697 182.346 88.9594C184.935 96.7517 188.334 104.251 192.486 111.335Z" fill="#263238"/>
<path d="M211.156 275.301H144.816C144.251 273.09 143.686 270.875 143.121 268.653C142.753 267.195 142.383 265.739 142.01 264.286C142.01 264.193 141.968 264.108 141.942 264.015L140.492 258.317C140.441 258.131 140.39 257.944 140.348 257.758C139.983 256.308 139.61 254.858 139.254 253.425C138.327 249.824 137.417 246.26 136.524 242.733C136.185 241.393 135.846 240.045 135.498 238.722C135.489 238.659 135.475 238.597 135.456 238.536C135.244 237.688 135.023 236.84 134.811 235.992C133.429 230.582 132.098 225.334 130.826 220.314C130.674 219.721 130.521 219.153 130.368 218.576C129.249 214.159 128.181 209.953 127.172 206.002L126.748 204.306C126.502 203.331 126.265 202.381 126.019 201.449C125.798 200.601 125.586 199.77 125.383 198.956C124.772 196.556 124.187 194.301 123.687 192.173C123.602 191.825 123.509 191.494 123.433 191.164C122.669 188.205 122 185.551 121.415 183.261C121.304 182.854 121.211 182.464 121.109 182.083C120.897 181.235 120.694 180.455 120.516 179.734C120.423 179.37 120.338 179.022 120.244 178.691L118.998 173.799H182.2C182.2 173.799 197.284 225.792 211.156 275.301Z" fill="#37474F"/>
<path d="M155.317 275.292H153.452C152.321 270.844 151.213 266.395 150.128 261.946L148.856 256.859C147.906 253.021 146.951 249.172 145.99 245.311C145.99 245.141 145.914 244.963 145.871 244.794C141.327 226.386 136.867 207.935 132.831 189.409C132.78 189.188 132.729 188.968 132.687 188.748C132.687 188.723 132.696 188.699 132.714 188.682C132.731 188.664 132.755 188.654 132.78 188.654C132.805 188.654 132.828 188.664 132.846 188.682C132.863 188.699 132.873 188.723 132.873 188.748L132.932 188.968C138.02 207.121 142.777 225.428 147.347 243.725C147.44 244.039 147.516 244.361 147.593 244.675C147.974 246.184 148.347 247.676 148.729 249.177C149.254 251.305 149.797 253.417 150.331 255.562C152.016 262.125 153.678 268.701 155.317 275.292Z" fill="#263238"/>
<path d="M180.148 173.836L171.169 218.774L170.762 220.784L170.126 223.98L169.109 229.068L168.168 233.807V234.019L167.99 234.867L159.943 275.193H144.816C144.251 272.983 143.686 270.767 143.121 268.546C142.753 267.087 142.383 265.632 142.01 264.179C142.01 264.086 141.968 264.001 141.942 263.908C141.45 262.008 140.976 260.109 140.492 258.21C140.441 258.023 140.39 257.837 140.348 257.65C139.983 256.2 139.61 254.75 139.254 253.317C138.327 249.717 137.417 246.153 136.524 242.625C136.185 241.286 135.846 239.938 135.498 238.615C135.489 238.552 135.475 238.489 135.456 238.428C135.244 237.58 135.023 236.733 134.811 235.885C133.429 230.475 132.098 225.227 130.826 220.207L130.368 218.469C129.249 214.051 128.181 209.846 127.172 205.895C127.028 205.326 126.892 204.767 126.748 204.199C126.502 203.224 126.265 202.274 126.019 201.341C125.798 200.493 125.586 199.662 125.383 198.848C124.772 196.449 124.187 194.194 123.687 192.065C123.602 191.718 123.509 191.387 123.433 191.056C122.669 188.097 122 185.443 121.415 183.154C121.304 182.747 121.211 182.357 121.109 181.975C120.897 181.127 120.694 180.347 120.516 179.627C120.423 179.262 120.338 178.914 120.244 178.584L118.998 173.691L180.148 173.836Z" fill="#263238"/>
<path d="M180.171 173.809C180.171 174.165 179.908 177.912 179.323 183.636C178.116 195.675 176.133 207.624 173.388 219.408C172.692 222.283 171.929 225.123 171.098 227.887C170.539 229.804 169.928 231.703 169.275 233.501L169.224 233.662L168.122 234.077C162.161 236.538 156.398 239.455 150.884 242.802C150.884 242.802 150.884 242.929 150.884 243.158C150.842 244.413 150.664 248.915 150.41 255.512C150.325 257.479 150.249 259.633 150.155 261.939C150.003 265.966 149.825 270.477 149.647 275.285H86.1221C86.97 264.61 87.767 253.774 88.581 243.268C88.581 243.268 82.6457 226.641 83.2901 218.238C84.8927 197.889 94.016 173.817 94.016 173.817L180.171 173.809Z" fill="#37474F"/>
<path d="M158.487 218.477L158.563 213.39C158.614 210.286 158.826 207.183 158.945 204.063C159.216 197.034 159.53 189.979 160.123 182.967C160.123 182.797 160.42 182.797 160.428 182.967C160.53 185.757 160.589 188.538 160.581 191.327C160.572 194.117 160.666 196.906 160.657 199.688C160.657 205.216 160.657 210.71 160.428 216.272C160.352 218.401 159.58 222.309 162.65 222.547C165.092 222.733 166.508 220.164 166.94 218.121C167.34 215.571 167.533 212.994 167.517 210.413C167.624 207.587 167.684 204.781 167.695 201.994C167.695 195.88 167.839 189.784 168 183.679C168 183.501 168.28 183.518 168.305 183.679C169.007 189.837 169.401 196.026 169.484 202.223C169.484 205.19 169.484 208.158 169.357 211.134C169.263 213.907 169.314 216.866 168.458 219.537C167.788 221.631 166.27 223.641 164.049 224.192C164.004 224.188 163.958 224.188 163.913 224.192C163.943 224.208 163.969 224.231 163.988 224.259C164.007 224.287 164.019 224.319 164.023 224.353C164.117 225.328 164.278 226.303 164.303 227.287C164.329 228.27 164.303 229.245 164.218 230.212C164.176 231.206 164.057 232.195 163.862 233.171C163.776 233.639 163.66 234.1 163.515 234.553C163.362 235.028 163.108 235.401 162.913 235.867C162.896 235.903 162.868 235.932 162.834 235.951C162.799 235.969 162.759 235.975 162.72 235.968C162.682 235.961 162.646 235.942 162.62 235.913C162.593 235.884 162.577 235.847 162.574 235.808C162.574 235.647 162.574 235.486 162.523 235.333C162.527 235.305 162.527 235.276 162.523 235.248C162.486 234.967 162.467 234.684 162.463 234.4C162.463 233.926 162.514 233.451 162.548 232.976C162.624 232.026 162.752 231.068 162.879 230.127C163.006 229.186 163.074 228.228 163.184 227.278C163.294 226.328 163.481 225.336 163.566 224.353C163.575 224.316 163.596 224.284 163.625 224.26C162.75 224.423 161.845 224.314 161.034 223.947C160.223 223.58 159.544 222.973 159.089 222.208C158.573 221.036 158.366 219.751 158.487 218.477Z" fill="#263238"/>
<path d="M145.475 245.107C147.469 243.581 149.568 242.199 151.758 240.969C154.061 239.575 156.455 238.334 158.922 237.256C163.755 235.161 168.741 233.728 173.727 232.075C173.871 232.024 173.973 232.279 173.828 232.329C168.995 234.254 164.366 236.806 159.702 239.113C157.405 240.24 155.081 241.309 152.741 242.343C150.401 243.378 148.061 244.582 145.661 245.463C145.475 245.506 145.331 245.226 145.475 245.107Z" fill="#263238"/>
<path d="M107.765 203.007C111.157 203.007 121.204 203.134 126.419 198.25C128.623 196.181 129.81 193.163 130.769 190.407C131.861 187.296 132.745 184.115 133.414 180.885C133.414 180.724 133.677 180.784 133.685 180.928C133.761 184.589 133.29 188.242 132.286 191.764C131.438 194.74 130.362 198.072 127.953 200.167C125.545 202.261 121.967 203.143 118.72 203.558C115.074 203.982 111.389 203.931 107.757 203.406C107.704 203.404 107.654 203.382 107.617 203.344C107.58 203.306 107.56 203.255 107.562 203.202C107.563 203.149 107.585 203.099 107.623 203.062C107.661 203.026 107.712 203.006 107.765 203.007Z" fill="#263238"/>
<path d="M189.17 202.529C187.644 202.63 183.125 203.105 180.42 198.425C179.276 196.432 178.521 193.465 177.876 190.751C177.139 187.682 176.528 184.545 175.969 181.34C175.969 181.187 175.842 181.246 175.85 181.39C176.087 184.999 176.566 188.588 177.283 192.133C177.876 195.076 178.631 198.357 179.869 200.366C180.332 201.171 180.969 201.861 181.734 202.388C182.498 202.915 183.37 203.264 184.287 203.41C185.944 203.715 187.655 203.535 189.213 202.893C189.306 202.851 189.281 202.52 189.17 202.529Z" fill="#263238"/>
<path d="M103.189 179.177C103.104 179.49 94.8369 210.651 95.2184 218.18C95.6 225.709 100.018 240.946 100.034 241.073C100.051 241.2 99.2459 254.546 98.0504 275.277H96.4394L98.415 241.26C98.2284 240.132 93.972 225.658 93.5989 218.282C93.1919 210.464 101.23 180.025 101.612 178.736C101.706 178.577 101.849 178.454 102.019 178.384C102.19 178.314 102.379 178.301 102.557 178.348C102.735 178.395 102.893 178.499 103.007 178.644C103.121 178.789 103.185 178.967 103.189 179.151V179.177Z" fill="#263238"/>
<path d="M159.496 83.5492C192.081 112.267 222.351 143.75 224.869 160.004C228.363 182.473 214.593 188.875 208.395 189.002C191.504 189.358 160.064 121.264 149.093 95.2502C138.452 69.9998 152.34 77.2832 159.496 83.5492Z" fill="#009247"/>
<path d="M181.817 173.813L177.272 145.256C177.272 145.256 188.583 133.555 182.732 121.294C179.782 115.079 159.695 84.8347 148.969 77.2036C138.905 70.0643 126.975 75.9911 122.506 83.7154C111.229 103.209 100.52 125.627 94 173.838L181.817 173.813Z" fill="#009247"/>
<path d="M163.887 141.552C159.309 142.047 154.774 142.883 150.321 144.053C148.116 144.664 145.962 145.376 143.809 146.131C142.74 146.504 141.655 146.843 140.57 147.182C139.445 147.564 138.277 147.809 137.093 147.911C137.077 147.917 137.062 147.928 137.051 147.942C137.041 147.957 137.035 147.974 137.035 147.992C137.035 148.01 137.041 148.027 137.051 148.042C137.062 148.056 137.077 148.067 137.093 148.072C138.226 148.108 139.359 148.065 140.485 147.945C141.565 147.795 142.633 147.571 143.682 147.275C145.92 146.673 148.125 145.978 150.363 145.359C154.857 144.104 159.359 142.815 163.929 141.925C164.167 141.883 164.099 141.527 163.887 141.552Z" fill="#263238"/>
<path d="M175.265 145.392C171.493 145.073 167.705 144.965 163.92 145.07C162.021 145.129 160.147 145.299 158.265 145.519C157.366 145.63 156.467 145.748 155.569 145.884C154.67 146.02 153.618 146.308 152.635 146.435C152.533 146.435 152.533 146.613 152.635 146.596C153.568 146.503 154.517 146.596 155.458 146.52L158.282 146.393C160.173 146.308 162.064 146.24 163.946 146.138C167.727 145.935 171.484 145.774 175.265 145.706C175.301 145.698 175.332 145.678 175.355 145.649C175.377 145.621 175.39 145.585 175.39 145.549C175.39 145.513 175.377 145.477 175.355 145.449C175.332 145.42 175.301 145.4 175.265 145.392Z" fill="#263238"/>
<path d="M121.409 80.757C91.037 104.583 61.208 145.765 61.0045 168.794C60.7841 191.526 68.7034 189.322 70.9503 189.144C84.6863 188.245 117.034 124.966 126.912 99.1733C136.671 73.6008 128.87 74.8641 121.409 80.757Z" fill="#009247"/>
<path d="M89.1719 171.411C90.7659 168.545 92.4024 165.713 93.9455 162.83L98.6768 154.224C101.797 148.475 104.968 142.752 108.004 136.952C111.039 131.153 114.168 125.421 117.152 119.604C118.662 116.705 120.131 113.785 121.562 110.846C123.045 107.929 124.394 104.953 125.801 101.977C123.636 108.168 121.128 114.234 118.289 120.147C115.508 126.082 112.481 131.907 109.445 137.715C106.41 143.524 103.128 149.204 99.7791 154.834C96.4299 160.464 92.9535 166.052 89.1719 171.411Z" fill="#263238"/>
<path d="M122.588 109.598C123.149 108.568 123.775 107.573 124.462 106.622C124.801 106.156 125.123 105.681 125.488 105.232C125.852 104.782 126.191 104.299 126.598 103.85C126.326 105.017 125.819 106.116 125.106 107.08C124.429 108.067 123.575 108.921 122.588 109.598Z" fill="#263238"/>
<path d="M215.378 126.735C213.784 116.06 210.595 101.179 206.746 98.1014C202.693 94.8709 188.016 84.0687 183.793 82.6612C179.571 81.2537 160.748 74.3264 157.322 76.3529C154.583 77.9808 157.933 85.1964 166.895 88.5711C174.763 91.5387 178.833 94.3368 181.089 95.2864C183.344 96.2361 188.966 103.587 187.499 106.886C186.651 108.827 181.046 111.125 177.536 109.607C174.026 108.09 173.084 101.128 169.057 97.9403C165.029 94.7522 157.992 95.2016 157.602 97.0924C157.212 98.9832 159.552 99.8566 163.223 106.284C165.589 110.413 165.852 120.384 171.185 127.481C173.865 131.042 178.579 140.556 178.579 140.556L215.378 126.735Z" fill="#F3A398"/>
<path d="M165.291 95.0326C164.003 94.8546 162.79 94.3201 161.789 93.4894C161.472 93.2023 161.229 92.8424 161.081 92.4407C160.934 92.039 160.886 91.6075 160.941 91.1832C160.948 90.8703 161.065 90.5699 161.272 90.3353C161.34 90.2844 161.272 90.1996 161.204 90.2674C161.107 90.419 161 90.5635 160.882 90.6999C160.804 90.8257 160.738 90.9592 160.687 91.0984C160.591 91.3705 160.545 91.6577 160.551 91.9463C160.579 92.6012 160.83 93.2269 161.264 93.7184C161.78 94.2483 162.413 94.6506 163.112 94.8935C163.811 95.1363 164.557 95.213 165.291 95.1174C165.35 95.1344 165.35 95.0411 165.291 95.0326Z" fill="#263238"/>
<path d="M206.741 98.1063C203.282 92.8069 194.489 83.2851 185.841 80.0715C179.999 77.8924 160.065 87.8637 160.692 91.6877C161.32 95.5117 164.737 95.4863 169.799 94.8249C171.639 94.5875 181.364 90.9839 183.051 93.0104C185.476 95.9272 188.622 105.958 188.622 105.958L206.741 98.1063Z" fill="#F3A398"/>
<path d="M161.183 90.1704C163.616 86.0412 169.026 83.7943 174.427 82.0137C174.44 82.0185 174.451 82.0272 174.459 82.0385C174.467 82.0499 174.471 82.0634 174.471 82.0773C174.471 82.0911 174.467 82.1046 174.459 82.116C174.451 82.1274 174.44 82.136 174.427 82.1409C173.054 82.5987 164.252 86.7449 161.2 90.2298C161.208 90.2722 161.158 90.2043 161.183 90.1704Z" fill="#263238"/>
<path d="M206.736 98.0938C203.277 92.7945 194.484 83.2726 185.836 80.0591C179.994 77.88 164.274 90.5306 164.901 94.3546C165.529 98.1786 170.446 98.433 175.856 96.4828C177.603 95.8554 183.487 91.6498 185.132 93.6763C187.557 96.593 193.467 103.851 193.467 103.851L206.736 98.0938Z" fill="#F3A398"/>
<path d="M190.088 99.3412C189.528 98.4933 189.342 98.2135 188.774 97.391C188.205 96.5685 187.62 95.7461 187.001 94.9745C186.508 94.2456 185.891 93.6085 185.178 93.0922C184.445 92.6883 183.6 92.5335 182.77 92.6513C180.888 92.8463 179.201 94.0588 177.615 94.9915C175.843 96.0344 172.155 97.7302 169.323 97.4588C168.542 97.4272 167.776 97.2307 167.076 96.8823C166.547 96.6447 166.084 96.2807 165.728 95.8224C164.473 93.7535 165.982 91.354 167.534 89.6497C170.434 86.4786 174.317 84.1638 178.141 82.2476C179.074 81.7812 180.015 81.3318 180.964 80.8909C182.009 80.3135 183.166 79.9666 184.356 79.8735C186.323 79.8311 189.571 81.7982 190.58 82.4171C190.656 82.4595 190.715 82.3324 190.639 82.29C189.418 81.5438 186.399 79.1188 183.22 79.3139C182.061 79.5004 180.944 79.8908 179.922 80.467C178.819 80.9503 177.734 81.476 176.657 82.0271C174.561 83.0877 172.548 84.3065 170.637 85.6731C168.729 86.9425 167.069 88.5486 165.736 90.4128C165.18 91.2438 164.859 92.2102 164.808 93.2092C164.757 94.2081 164.978 95.2021 165.448 96.0852C166.296 97.5182 168.187 97.8489 169.043 97.9421C169.873 98.0523 170.714 98.0523 171.544 97.9421C173.393 97.5038 175.209 96.9371 176.979 96.2464C178.675 95.5426 180.235 94.364 181.999 93.8129C182.832 93.5259 183.745 93.5745 184.543 93.9485C185.27 94.4283 185.922 95.0142 186.476 95.6867C187.677 96.8395 188.767 98.1028 189.732 99.4599C190.028 99.8329 190.291 99.7142 190.088 99.3412Z" fill="#263238"/>
<path d="M209.32 102.723C208.04 100.179 205.826 89.7585 203.775 86.5704C201.723 83.3823 192.387 72.3851 188.089 72.9108C182.687 73.5722 188.428 83.2636 191.302 87.2487C194.176 91.2339 193.769 98.0594 193.769 98.0594L209.32 102.723Z" fill="#F3A398"/>
<path d="M187.286 80.6837C188.303 81.9386 189.21 83.3376 190.101 84.6943C191.014 85.9534 191.836 87.2767 192.56 88.6539C193.166 90.0652 193.538 91.5658 193.662 93.0969C193.738 93.8515 193.772 94.5977 193.789 95.3523C193.806 96.107 193.73 97.0481 193.789 97.8367C193.789 97.9215 193.653 97.9384 193.653 97.8367C193.534 96.3326 193.322 94.8375 193.017 93.3598C192.736 91.8241 192.266 90.329 191.618 88.9083C190.321 86.0848 188.447 83.5835 187.125 80.777C187.048 80.6244 187.209 80.548 187.286 80.6837Z" fill="#263238"/>
<path d="M193.692 99.2012C194.065 101.796 193.319 104.424 192.387 106.832C191.909 108.048 191.343 109.227 190.691 110.359C190.028 111.478 189.291 112.552 188.486 113.573C186.936 115.519 185.637 117.653 184.62 119.924C183.659 122.258 182.987 124.701 182.619 127.199C182.402 124.605 182.69 121.993 183.467 119.508C184.311 117.023 185.57 114.698 187.189 112.632C188.73 110.665 190.066 108.546 191.174 106.307C192.285 104.043 193.404 101.753 193.692 99.2012Z" fill="#263238"/>
<path d="M206.838 188.233C196.29 186.809 189.396 169.173 177.356 138.207C175.237 132.764 202.793 99.2973 206.541 104.291C211.264 110.583 223.982 145.609 225.313 155.165C227.95 173.955 219.149 189.895 206.838 188.233Z" fill="#F3A398"/>
<path d="M183.715 155.453L217.707 122.428C217.707 122.428 227.365 150.849 226.457 162.762C225.55 174.675 221.37 188.25 207.057 188.996C196.323 189.556 183.715 155.453 183.715 155.453Z" fill="#009247"/>
<path d="M194.712 178.314C193.483 176.576 192.389 174.753 191.32 172.922C190.252 171.09 189.269 169.216 188.31 167.326C187.352 165.435 186.471 163.493 185.69 161.518C184.855 159.559 184.194 157.53 183.715 155.455C184.614 157.38 185.563 159.262 186.521 161.144L189.379 166.791C190.303 168.691 191.244 170.582 192.126 172.498C193.008 174.414 193.915 176.339 194.712 178.314Z" fill="#263238"/>
<path d="M191.027 161.228C192.672 159.414 194.486 157.735 196.233 156.03C197.979 154.326 199.76 152.639 201.558 150.943C205.136 147.602 208.745 144.29 212.385 141.006C213.386 140.107 214.389 139.217 215.395 138.335C216.481 137.394 217.685 136.588 218.787 135.639C218.805 135.629 218.826 135.627 218.846 135.631C218.867 135.635 218.885 135.645 218.898 135.661C218.912 135.676 218.92 135.696 218.921 135.716C218.923 135.737 218.917 135.757 218.906 135.774C218.058 136.622 217.286 137.563 216.438 138.42C215.59 139.276 214.658 140.175 213.75 141.04C211.981 142.735 210.2 144.417 208.409 146.085C204.822 149.425 201.227 152.758 197.539 155.988C195.453 157.811 193.409 159.71 191.222 161.406C191.198 161.432 191.165 161.447 191.13 161.449C191.095 161.451 191.061 161.438 191.035 161.415C191.009 161.391 190.994 161.358 190.992 161.323C190.991 161.288 191.003 161.254 191.027 161.228Z" fill="#263238"/>
<path d="M130.382 78.1362C130.628 79.832 137.793 91.7873 147.289 91.2108C152.775 90.8547 149.044 79.832 149.044 79.832L153.818 64.7734L135.614 50.8594C135.614 50.8594 130.289 77.3985 130.382 78.1362Z" fill="#F3A398"/>
<path d="M133.663 60.798C134.883 64.7463 136.902 68.4014 139.595 71.5361C142.287 74.6708 145.596 77.218 149.315 79.0193L153.826 64.8085L135.613 50.8945C135.613 50.8945 134.731 55.3629 133.663 60.798Z" fill="#263238"/>
<path d="M175.277 43.6626C175.819 69.5234 160.388 72.7709 154.808 72.8811C149.721 72.9828 132.492 72.6776 129.278 47.0033C126.065 21.329 137.927 12.9009 149.492 12.0615C161.057 11.2221 174.742 17.7933 175.277 43.6626Z" fill="#F3A398"/>
<path d="M169.231 41.586C168.658 41.4511 168.092 41.2869 167.535 41.0943C166.891 41.009 166.294 40.7105 165.839 40.2464C165.727 40.0769 165.675 39.8749 165.69 39.6723C165.705 39.4696 165.788 39.2779 165.924 39.1272C166.238 38.8697 166.614 38.7002 167.015 38.6361C167.416 38.5721 167.827 38.6157 168.205 38.7626C169.02 38.9455 169.738 39.4225 170.223 40.1022C170.321 40.2624 170.37 40.4473 170.367 40.6349C170.363 40.8225 170.305 41.005 170.201 41.161C170.097 41.317 169.95 41.4399 169.778 41.5152C169.606 41.5905 169.416 41.6151 169.231 41.586Z" fill="#263238"/>
<path d="M151.485 40.8243C152.079 40.7763 152.671 40.6942 153.257 40.5785C153.893 40.586 154.514 40.38 155.02 39.9934C155.157 39.8427 155.239 39.6509 155.254 39.4483C155.27 39.2457 155.217 39.0437 155.105 38.8742C154.834 38.5709 154.486 38.3463 154.098 38.224C153.71 38.1016 153.297 38.0861 152.9 38.1789C152.067 38.2302 151.285 38.5971 150.713 39.2049C150.59 39.3494 150.512 39.5262 150.488 39.7141C150.463 39.902 150.494 40.093 150.575 40.2641C150.657 40.4351 150.786 40.579 150.947 40.6784C151.108 40.7778 151.295 40.8285 151.485 40.8243Z" fill="#263238"/>
<path d="M154.707 47.6134C154.707 47.5455 154.572 47.6897 154.563 47.766C154.563 49.5211 154.199 51.5391 152.579 52.0055C152.528 52.0055 152.528 52.1072 152.579 52.1072C154.546 51.9461 154.962 49.3092 154.707 47.6134Z" fill="#263238"/>
<path d="M153.226 45.677C150.411 45.3124 149.894 50.9848 152.506 51.3155C155.117 51.6462 155.592 45.9738 153.226 45.677Z" fill="#263238"/>
<path d="M152.085 45.9211C151.559 46.2009 151.025 46.7182 150.389 46.769C149.753 46.8199 149.219 46.1331 148.821 45.5226C148.778 45.4633 148.727 45.5226 148.719 45.582C148.609 46.6673 148.922 47.812 150.076 48.0833C151.229 48.3546 151.966 47.4304 152.339 46.3875C152.441 46.0822 152.297 45.7685 152.085 45.9211Z" fill="#263238"/>
<path d="M165.338 47.7735C165.338 47.7057 165.465 47.8753 165.457 47.9431C165.228 49.6898 165.262 51.7332 166.797 52.4709C166.839 52.4709 166.797 52.5811 166.797 52.5641C164.855 52.1063 164.838 49.393 165.338 47.7735Z" fill="#263238"/>
<path d="M167.072 46.0765C169.913 46.1443 169.616 51.8168 166.945 51.7659C164.274 51.715 164.69 46.0256 167.072 46.0765Z" fill="#263238"/>
<path d="M168.248 46.5448C168.681 46.867 169.096 47.4435 169.622 47.5114C170.148 47.5792 170.741 46.9941 171.174 46.4345C171.216 46.3752 171.258 46.4345 171.258 46.5024C171.258 47.5877 170.792 48.6984 169.741 48.8426C168.689 48.9867 168.13 47.9947 167.935 46.9094C167.901 46.7059 168.045 46.4091 168.248 46.5448Z" fill="#263238"/>
<path d="M154.671 61.1344C155.035 61.6008 155.374 62.2198 156.002 62.3554C156.652 62.4321 157.31 62.3714 157.935 62.1774C157.994 62.1774 158.045 62.2282 158.003 62.2706C157.706 62.5809 157.332 62.8053 156.918 62.9202C156.505 63.0351 156.068 63.0363 155.654 62.9235C155.307 62.7837 155.01 62.5436 154.8 62.2341C154.59 61.9245 154.477 61.5594 154.476 61.1853C154.476 61.0836 154.62 61.0666 154.671 61.1344Z" fill="#263238"/>
<path d="M162.523 55.3488C162.523 55.3488 162.684 57.9942 162.583 59.2322C162.583 59.3509 162.269 59.3848 161.854 59.3763H161.803C160.725 59.4832 159.639 59.2932 158.661 58.8269C157.684 58.3606 156.852 57.6357 156.257 56.7308C156.181 56.6037 156.351 56.485 156.452 56.5698C157.948 57.7721 159.792 58.4591 161.709 58.5284C161.82 58.1977 161.285 54.0006 161.489 54.0006C162.442 54.157 163.369 54.4423 164.245 54.8485C164.084 49.3117 163.024 43.8259 162.947 38.34C162.939 38.2973 162.949 38.2531 162.974 38.2174C162.998 38.1816 163.036 38.1571 163.079 38.1492C163.121 38.1413 163.166 38.1507 163.201 38.1754C163.237 38.2 163.262 38.2379 163.27 38.2806C164.779 43.9276 165.109 50.2953 165.432 56.0017C165.508 56.7224 163.007 55.5947 162.523 55.3488Z" fill="#263238"/>
<path d="M129.889 46.4264C136.257 47.2743 141.386 28.1288 141.988 25.7717C141.692 27.2809 140.114 35.2512 140.666 35.6751C141.345 35.791 142.038 35.791 142.717 35.6751C142.884 34.7174 143.122 33.7736 143.43 32.8516C143.557 32.4192 143.43 33.8436 143.43 35.6157C143.803 35.6157 144.21 35.5225 144.651 35.4886C144.929 33.4295 145.479 31.4165 146.287 29.5024C146.601 28.7817 146.228 32.2157 146.448 35.3105C151.01 34.8696 157.581 34.3948 163.508 35.1918C165.102 35.4038 166.459 35.6497 167.654 35.9125C168.061 33.5554 168.214 30.9862 168.299 31.5628C168.529 33.0689 168.611 34.5939 168.544 36.116C169.189 36.2686 169.782 36.4128 170.317 36.5569C171.046 33.2501 170.359 27.6455 170.757 28.5528C171.918 31.3357 172.539 34.3137 172.589 37.3285C174.793 38.1764 175.345 38.7021 175.514 38.1255C175.802 37.0741 176.082 27.5099 169.96 19.4209C163.313 10.6367 147.847 6.092 137.011 16.0293C137.011 16.0293 128.871 19.5736 126.412 27.052C123.954 34.5304 126.2 45.9262 129.889 46.4264Z" fill="#263238"/>
<path d="M133.678 47.145C133.678 47.145 128.591 38.7169 124.784 40.489C120.977 42.2611 124.462 54.2164 128.65 56.0988C129.171 56.3765 129.743 56.546 130.331 56.597C130.919 56.6481 131.511 56.5797 132.072 56.3959C132.632 56.2122 133.15 55.9168 133.594 55.5277C134.038 55.1386 134.398 54.6637 134.653 54.1316L133.678 47.145Z" fill="#F3A398"/>
<path d="M125.853 43.8887C125.842 43.8931 125.832 43.9007 125.826 43.9105C125.819 43.9203 125.815 43.9319 125.815 43.9438C125.815 43.9557 125.819 43.9672 125.826 43.9771C125.832 43.9869 125.842 43.9945 125.853 43.9989C128.786 45.4234 130.186 48.3147 131.11 51.2823C130.262 50.1122 129.109 49.417 127.549 50.3836C127.464 50.4344 127.549 50.5616 127.616 50.5531C128.156 50.4191 128.723 50.4556 129.241 50.6575C129.759 50.8595 130.202 51.217 130.508 51.6808C131.014 52.4629 131.437 53.2955 131.771 54.1652C131.89 54.445 132.39 54.3348 132.305 54.021C132.301 53.9958 132.301 53.97 132.305 53.9447C132.577 50.1546 129.948 44.55 125.853 43.8887Z" fill="#263238"/>
<path d="M156.095 90.2931L141.749 134.655C141.18 135.944 141.749 137.063 143.08 137.148L166.355 138.674C167.069 138.667 167.766 138.458 168.367 138.071C168.967 137.683 169.445 137.134 169.746 136.487L184.067 92.1246C184.635 90.8273 184.067 89.7081 182.744 89.5809L159.47 88.0547C158.753 88.0685 158.054 88.2864 157.457 88.6828C156.859 89.0793 156.387 89.6379 156.095 90.2931Z" fill="#37474F"/>
<path d="M158.862 90.4395L144.542 134.801C143.973 136.099 144.542 137.218 145.873 137.303L169.147 138.829C169.862 138.822 170.559 138.613 171.16 138.225C171.76 137.838 172.238 137.289 172.539 136.641L186.86 92.271C187.428 90.9822 186.86 89.863 185.537 89.7782L162.263 88.252C161.546 88.2554 160.846 88.4631 160.244 88.8506C159.642 89.2381 159.162 89.7893 158.862 90.4395Z" fill="#455A64"/>
<path d="M165.117 92.9182C165.084 93.3093 164.935 93.6817 164.69 93.9883C164.445 94.295 164.115 94.522 163.741 94.6408C163.367 94.7596 162.966 94.7647 162.589 94.6555C162.212 94.5464 161.875 94.3278 161.623 94.0275C161.37 93.7273 161.212 93.3588 161.168 92.9686C161.125 92.5785 161.198 92.1843 161.379 91.8359C161.56 91.4875 161.84 91.2005 162.184 91.0113C162.528 90.8221 162.92 90.7392 163.311 90.773C163.835 90.8183 164.319 91.0697 164.658 91.4719C164.997 91.8741 165.162 92.3943 165.117 92.9182Z" fill="#263238"/>
<path d="M67.7966 189.132C77.9714 190.531 90.6305 182.638 123.486 158.651C128.031 155.335 113.235 116.951 108.224 120.241C101.882 124.395 78.1579 141.871 76.5893 143.371C63.2943 155.997 60.9032 188.183 67.7966 189.132Z" fill="#F3A398"/>
<path d="M96.4688 131.842C96.4688 131.842 105.796 118.717 112.876 113.341C122.321 106.142 133.437 103.811 138.151 103.115C147.995 101.666 172.805 104.972 173.102 112.281C173.373 118.903 148.182 114.248 148.182 114.248C148.182 114.248 174.645 114.757 173.509 122.787C172.372 130.816 143.459 123.745 143.459 123.745C143.459 123.745 170.643 124.872 168.158 132.97C166.276 139.083 139.711 134.157 139.711 134.157C139.711 134.157 163.063 135.293 161.401 141.669C159.561 148.707 134.76 145.697 134.76 145.697C127.807 161.188 117.802 165.546 110.586 167.954C108.797 168.539 96.4688 131.842 96.4688 131.842Z" fill="#F3A398"/>
<path d="M139.03 113.49C142.142 113.431 145.288 113.363 148.357 113.583C151.426 113.804 154.564 114.143 157.633 114.652C161.659 115.244 165.605 116.294 169.393 117.781C162.474 115.635 151.376 114.66 148.272 114.431C145.169 114.202 142.083 113.829 138.945 113.583C138.937 113.6 138.954 113.49 139.03 113.49Z" fill="#263238"/>
<path d="M138.013 124.688C141.99 124.798 145.941 124.755 149.883 125.035C153.826 125.315 157.557 125.925 161.483 126.477C161.779 126.519 161.661 126.663 161.356 126.629C157.413 126.239 153.724 126.18 149.79 125.832C145.856 125.485 141.913 124.984 137.971 124.781C137.945 124.781 137.954 124.688 138.013 124.688Z" fill="#263238"/>
<path d="M135.433 134.088C141.521 133.935 147.617 134.936 153.586 136.004C153.883 136.063 153.705 136.233 153.4 136.199C147.371 135.444 142.657 134.817 135.441 134.3C135.323 134.325 135.306 134.088 135.433 134.088Z" fill="#263238"/>
<path d="M96.4519 126.623L109.399 173.8C109.399 173.8 74.6355 194.243 67.0044 188.842C59.3734 183.441 64.3421 156.189 73.0669 145.802C76.645 141.47 96.4519 126.623 96.4519 126.623Z" fill="#009247"/>
<path d="M96.8943 128.176L96.3855 126.625L96.5127 126.675C93.2314 129.355 89.9415 132.009 86.6941 134.713C83.4466 137.418 80.1907 140.115 77.1044 142.972C75.5404 144.356 74.0676 145.84 72.6953 147.415C71.3822 149.036 70.2107 150.766 69.1935 152.587C67.1764 156.297 65.7626 160.304 65.0049 164.458C65.3395 160.191 66.4909 156.029 68.3965 152.197C69.3539 150.271 70.5136 148.452 71.8559 146.771C73.2366 145.129 74.7236 143.58 76.3073 142.133C79.453 139.275 82.7514 136.596 86.0921 133.993C89.4328 131.39 92.8752 128.905 96.4195 126.574L96.5212 126.506V126.616L96.8943 128.176Z" fill="#263238"/>
<path d="M88.8581 138.354C89.6467 140.668 90.2487 143.059 90.9015 145.417C91.5544 147.774 92.1903 150.148 92.7924 152.53C93.9964 157.279 95.1749 162.035 96.2857 166.809C96.5909 168.115 96.8962 169.421 97.1336 170.735C97.371 172.049 97.566 173.575 97.8797 174.974C97.8825 174.985 97.8831 174.997 97.8814 175.008C97.8797 175.02 97.8758 175.031 97.8699 175.04C97.858 175.06 97.8386 175.075 97.8161 175.08C97.7937 175.086 97.7699 175.082 97.75 175.07C97.7301 175.058 97.7158 175.039 97.7102 175.017C97.3964 173.855 96.9131 172.736 96.574 171.574C96.2348 170.413 95.8872 169.175 95.5735 167.962C94.946 165.594 94.3299 163.222 93.725 160.848C92.5125 156.1 91.3255 151.343 90.2741 146.553C89.6806 143.856 89.0023 141.143 88.5783 138.413C88.5744 138.395 88.5742 138.376 88.5776 138.357C88.581 138.339 88.5881 138.321 88.5983 138.305C88.6085 138.29 88.6218 138.276 88.6373 138.265C88.6527 138.255 88.6702 138.247 88.6885 138.243C88.7069 138.239 88.7259 138.239 88.7443 138.243C88.7628 138.246 88.7804 138.253 88.7962 138.263C88.8119 138.274 88.8255 138.287 88.8361 138.302C88.8467 138.318 88.8542 138.335 88.8581 138.354Z" fill="#263238"/>
<path d="M109.415 173.804C109.644 174.244 109.627 173.871 109.576 173.6C109.525 173.329 108.991 171.056 108.491 169.615C108.44 169.471 108.22 169.216 108.304 169.734C108.602 171.109 108.973 172.468 109.415 173.804Z" fill="#263238"/>
</svg>
