<svg width="900" height="845" viewBox="0 0 900 845" fill="none" xmlns="http://www.w3.org/2000/svg">
<path d="M5.58423 521.082C27.6896 403.162 133.732 300.297 258.762 290.462C326.899 285.176 395.388 305.682 463.245 297.855C520.756 290.999 573.677 264.358 612.097 222.921C668.148 162.038 687.101 81.9082 746.445 23.9688C828.21 -55.9487 970.897 -57.1864 1070.39 1.58928C1169.88 60.365 1230.03 159.964 1257.57 268.517L1258.65 301.534C1264.64 414.135 1233.6 545.167 1165.19 645.524C1095.86 747.219 1050.28 789.369 923.953 862.329C816.685 924.416 606.632 951.713 481.216 954.59C355.801 957.467 226.988 921.807 132.646 842.793C38.3041 763.778 -16.5562 639.001 5.58423 521.082Z" fill="#CCE9DA"/>
<path d="M414.331 193.407C410.787 170.068 427.706 148.402 452.12 145.014C476.535 141.626 499.2 157.799 502.744 181.137C506.288 204.476 489.37 226.142 464.955 229.53C440.541 232.918 417.876 216.745 414.331 193.407Z" fill="#CCE9DA"/>
</svg>
